<svg xmlns="http://www.w3.org/2000/svg" viewBox="0 0 800 600" role="img" aria-labelledby="t d">
  <title id="t">Nitrile examination gloves</title>
  <desc id="d">Illustration of two nitrile gloves with clean medical styling.</desc>
  <defs>
    <linearGradient id="bg" x1="0" x2="1" y1="0" y2="1">
      <stop offset="0" stop-color="#f6f8fb"/>
      <stop offset="1" stop-color="#ffffff"/>
    </linearGradient>
    <filter id="shadow" x="-20%" y="-20%" width="140%" height="140%">
      <feDropShadow dx="0" dy="14" stdDeviation="16" flood-color="#0f172a" flood-opacity="0.12"/>
    </filter>
  </defs>

  <style>
    :root{--brand:#0ea67a;--ink:#0f172a;--muted:#64748b;--stroke:rgba(15,23,42,.14)}
    .card{fill:url(#bg);stroke:var(--stroke);stroke-width:2}
    .label{font:800 18px ui-sans-serif,system-ui;fill:var(--ink)}
    .small{font:600 12px ui-sans-serif,system-ui;fill:var(--muted)}
    .pill{fill:rgba(14,166,122,.10);stroke:rgba(14,166,122,.25);stroke-width:2}
    .glove{fill:#ffffff;stroke:rgba(15,23,42,.16);stroke-width:2}
    .accent{fill:rgba(14,166,122,.12);stroke:rgba(14,166,122,.30);stroke-width:2}
  </style>

  <rect x="60" y="50" width="680" height="500" rx="28" class="card" filter="url(#shadow)"/>
  <rect x="92" y="86" width="190" height="44" rx="22" class="pill"/>
  <text x="112" y="115" class="small">PPE • GLOVES</text>

  <!-- Left glove -->
  <path class="glove" d="M230 420c-18-36-26-82-10-126 8-22 10-58 10-82 0-20 14-34 32-34 16 0 28 10 30 24l8 52 10-60c2-14 14-24 30-24 18 0 32 14 32 34v64l10-50c3-14 14-24 30-24 18 0 32 14 32 34 0 84-12 150-44 204-24 42-68 68-118 68-44 0-84-20-112-54Z"/>
  <path class="accent" d="M250 405c-12-28-18-64-8-98 6-18 8-46 8-66 0-8 6-14 14-14 7 0 12 4 13 10l10 64 12-70c1-6 6-10 13-10 8 0 14 6 14 14v76l12-58c1-6 6-10 13-10 8 0 14 6 14 14 0 66-10 120-34 162-18 32-52 52-90 52-34 0-64-16-86-42Z"/>

  <!-- Right glove -->
  <path class="glove" d="M560 420c18-36 26-82 10-126-8-22-10-58-10-82 0-20-14-34-32-34-16 0-28 10-30 24l-8 52-10-60c-2-14-14-24-30-24-18 0-32 14-32 34v64l-10-50c-3-14-14-24-30-24-18 0-32 14-32 34 0 84 12 150 44 204 24 42 68 68 118 68 44 0 84-20 112-54Z"/>
  <path class="accent" d="M540 405c12-28 18-64 8-98-6-18-8-46-8-66 0-8-6-14-14-14-7 0-12 4-13 10l-10 64-12-70c-1-6-6-10-13-10-8 0-14 6-14 14v76l-12-58c-1-6-6-10-13-10-8 0-14 6-14 14 0 66 10 120 34 162 18 32 52 52 90 52 34 0 64-16 86-42Z"/>

  <text x="140" y="470" class="label">Nitrile Examination Gloves</text>
  <text x="140" y="495" class="small">Powder-free • Sizes S/M • Colors: blue / pink / black</text>
</svg>
