<svg xmlns="http://www.w3.org/2000/svg" viewBox="0 0 800 600" role="img" aria-labelledby="t d">
  <title id="t">Silicone baby feeding bottle</title>
  <desc id="d">Illustration of a silicone baby feeding bottle with clean medical styling.</desc>
  <defs>
    <linearGradient id="bg" x1="0" x2="1" y1="0" y2="1">
      <stop offset="0" stop-color="#f6f8fb"/>
      <stop offset="1" stop-color="#ffffff"/>
    </linearGradient>
    <filter id="shadow" x="-20%" y="-20%" width="140%" height="140%">
      <feDropShadow dx="0" dy="14" stdDeviation="16" flood-color="#0f172a" flood-opacity="0.12"/>
    </filter>
  </defs>

  <style>
    :root{--brand:#0ea67a;--ink:#0f172a;--muted:#64748b;--stroke:rgba(15,23,42,.14)}
    .card{fill:url(#bg);stroke:var(--stroke);stroke-width:2}
    .label{font:800 18px ui-sans-serif,system-ui;fill:var(--ink)}
    .small{font:600 12px ui-sans-serif,system-ui;fill:var(--muted)}
    .pill{fill:rgba(14,166,122,.10);stroke:rgba(14,166,122,.25);stroke-width:2}
  </style>

  <rect x="60" y="50" width="680" height="500" rx="28" class="card" filter="url(#shadow)"/>
  <rect x="92" y="86" width="220" height="44" rx="22" class="pill"/>
  <text x="112" y="115" class="small">BABY CARE • SILICONE</text>

  <!-- Bottle -->
  <path d="M360 160c0-18 14-32 32-32h16c18 0 32 14 32 32v22c0 12-6 22-16 28v24h-64v-24c-10-6-16-16-16-28v-22Z"
        fill="#fff" stroke="rgba(15,23,42,.16)" stroke-width="2"/>
  <path d="M392 138h48" fill="none" stroke="rgba(14,166,122,.55)" stroke-width="10" stroke-linecap="round"/>
  <path d="M360 214h112" fill="none" stroke="rgba(15,23,42,.10)" stroke-width="10" stroke-linecap="round"/>

  <rect x="310" y="250" width="220" height="260" rx="56" fill="#fff" stroke="rgba(15,23,42,.16)" stroke-width="2"/>
  <rect x="330" y="270" width="180" height="220" rx="44" fill="rgba(14,166,122,.10)" stroke="rgba(14,166,122,.25)" stroke-width="2"/>

  <!-- Measurement marks -->
  <path d="M465 300h30M465 340h30M465 380h30M465 420h30" stroke="rgba(15,23,42,.18)" stroke-width="6" stroke-linecap="round"/>

  <text x="140" y="470" class="label">Silicone Feeding Bottles</text>
  <text x="140" y="495" class="small">Food-grade • BPA/Phthalate/Latex-free • 150/240/330 ml • Handle-free</text>
</svg>
